<?xml version="1.0" encoding="UTF-8" standalone="no" ?>
<!DOCTYPE svg PUBLIC "-//W3C//DTD SVG 1.1//EN" "http://www.w3.org/Graphics/SVG/1.1/DTD/svg11.dtd">
<svg xmlns="http://www.w3.org/2000/svg" xmlns:xlink="http://www.w3.org/1999/xlink" version="1.1" width="1280" height="1024" viewBox="0 0 1280 1024" xml:space="preserve">
<desc>Created with Fabric.js 4.4.0</desc>
<defs>
</defs>
<g transform="matrix(1 0 0 1 640 512)" id="background-logo"  >
<rect style="stroke: none; stroke-width: 0; stroke-dasharray: none; stroke-linecap: butt; stroke-dashoffset: 0; stroke-linejoin: miter; stroke-miterlimit: 4; fill: rgb(99,9,16); fill-rule: nonzero; opacity: 1;"  paint-order="stroke"  x="-640" y="-512" rx="0" ry="0" width="1280" height="1024" />
</g>
<g transform="matrix(1.9139798205645582 -0.1658714775462506 0.1658714775462506 1.9139798205645582 501.02746319425137 536.7369708615892)" id="text-logo-0"  >
<g style=""  paint-order="stroke"   >
		<g transform="matrix(0.9999999999999999 0 0 1 0 0)" id="text-logo-0-path-0"  >
<path style="stroke: none; stroke-width: 0; stroke-dasharray: none; stroke-linecap: butt; stroke-dashoffset: 0; stroke-linejoin: miter; stroke-miterlimit: 4; fill: rgb(252,222,225); fill-rule: nonzero; opacity: 1;"  paint-order="stroke"  transform=" translate(-21.159999999999997, 18.975)" d="M 17.16 -37.95 L 25.16 -37.95 L 40.48 0 L 31.19 0 L 28.38 -7.59 L 13.94 -7.59 L 11.13 0 L 1.84 0 L 17.16 -37.95 Z M 16.88 -15.18 L 25.44 -15.18 L 21.21 -26.22 L 21.11 -26.22 L 16.88 -15.18 Z" stroke-linecap="round" />
</g>
</g>
</g>
<g transform="matrix(1.9201226729259349 -0.06293664677657644 0.06293664677657644 1.9201226729259349 587.0329932827916 531.6166289502759)" id="text-logo-1"  >
<g style=""  paint-order="stroke"   >
		<g transform="matrix(1 0 0 1 0 0)" id="text-logo-1-path-0"  >
<path style="stroke: none; stroke-width: 0; stroke-dasharray: none; stroke-linecap: butt; stroke-dashoffset: 0; stroke-linejoin: miter; stroke-miterlimit: 4; fill: rgb(252,222,225); fill-rule: nonzero; opacity: 1;"  paint-order="stroke"  transform=" translate(-17.455000000000002, 18.975)" d="M 1.84 0 L 1.84 -37.95 L 15.41 -37.95 Q 20.88 -37.95 24.33 -35.03 Q 27.78 -32.11 27.78 -26.68 L 27.78 -26.68 Q 27.78 -22.49 25.69 -19.66 Q 23.6 -16.84 20.01 -15.69 L 20.01 -15.69 L 33.07 0 L 22.08 0 L 10.49 -15 L 10.49 0 L 1.84 0 Z M 10.49 -31.05 L 10.49 -21.11 L 11.5 -21.11 Q 12.7 -21.11 13.52 -21.16 Q 14.35 -21.21 15.41 -21.48 Q 16.47 -21.76 17.11 -22.26 Q 17.76 -22.77 18.22 -23.74 Q 18.68 -24.7 18.68 -26.08 Q 18.68 -27.46 18.22 -28.43 Q 17.76 -29.39 17.11 -29.9 Q 16.47 -30.41 15.41 -30.68 Q 14.35 -30.96 13.52 -31 Q 12.7 -31.05 11.5 -31.05 L 11.5 -31.05 L 10.49 -31.05 Z" stroke-linecap="round" />
</g>
</g>
</g>
<g transform="matrix(1.9211488337635494 0.004388521467424279 -0.004388521467424279 1.9211488337635494 643.3765441280351 530.74392373769)" id="text-logo-2"  >
<g style=""  paint-order="stroke"   >
		<g transform="matrix(0.9999999999999999 0 0 1 0 0)" id="text-logo-2-path-0"  >
<path style="stroke: none; stroke-width: 0; stroke-dasharray: none; stroke-linecap: butt; stroke-dashoffset: 0; stroke-linejoin: miter; stroke-miterlimit: 4; fill: rgb(252,222,225); fill-rule: nonzero; opacity: 1;"  paint-order="stroke"  transform=" translate(-6.165, 18.975)" d="M 1.84 -37.95 L 10.49 -37.95 L 10.49 0 L 1.84 0 L 1.84 -37.95 Z" stroke-linecap="round" />
</g>
</g>
</g>
<g transform="matrix(1.9194674571264618 0.08047845440981093 -0.08047845440981093 1.9194674571264618 706.9753702297471 532.1582885999753)" id="text-logo-3"  >
<g style=""  paint-order="stroke"   >
		<g transform="matrix(1 0 0 1 0 0)" id="text-logo-3-path-0"  >
<path style="stroke: none; stroke-width: 0; stroke-dasharray: none; stroke-linecap: butt; stroke-dashoffset: 0; stroke-linejoin: miter; stroke-miterlimit: 4; fill: rgb(252,222,225); fill-rule: nonzero; opacity: 1;"  paint-order="stroke"  transform=" translate(-21.159999999999997, 18.975)" d="M 17.16 -37.95 L 25.16 -37.95 L 40.48 0 L 31.19 0 L 28.38 -7.59 L 13.94 -7.59 L 11.13 0 L 1.84 0 L 17.16 -37.95 Z M 16.88 -15.18 L 25.44 -15.18 L 21.21 -26.22 L 21.11 -26.22 L 16.88 -15.18 Z" stroke-linecap="round" />
</g>
</g>
</g>
<g transform="matrix(1.9129000793130722 0.17789150388863012 -0.17789150388863015 1.9129000793130724 788.4671144705464 537.651601236481)" id="text-logo-4"  >
<g style=""  paint-order="stroke"   >
		<g transform="matrix(0.9999999999999999 0 0 1 0 0)" id="text-logo-4-path-0"  >
<path style="stroke: none; stroke-width: 0; stroke-dasharray: none; stroke-linecap: butt; stroke-dashoffset: 0; stroke-linejoin: miter; stroke-miterlimit: 4; fill: rgb(252,222,225); fill-rule: nonzero; opacity: 1;"  paint-order="stroke"  transform=" translate(-16.125, 18.975)" d="M 17.53 -38.64 L 17.53 -38.64 Q 20.61 -38.64 23.55 -37.74 Q 26.5 -36.85 27.92 -35.97 L 27.92 -35.97 L 29.3 -35.05 L 25.81 -28.15 Q 25.39 -28.43 24.66 -28.86 Q 23.92 -29.3 21.9 -30.04 Q 19.87 -30.77 18.12 -30.77 L 18.12 -30.77 Q 15.96 -30.77 14.79 -29.85 Q 13.62 -28.93 13.62 -27.37 L 13.62 -27.37 Q 13.62 -26.59 14.17 -25.92 Q 14.72 -25.25 16.05 -24.5 Q 17.39 -23.74 18.4 -23.28 Q 19.41 -22.82 21.53 -21.9 L 21.53 -21.9 Q 25.21 -20.33 27.81 -17.64 Q 30.41 -14.95 30.41 -11.55 L 30.41 -11.55 Q 30.41 -8.28 29.23 -5.84 Q 28.06 -3.4 26.01 -2.02 Q 23.97 -0.64 21.48 0.02 Q 19 0.69 16.1 0.69 L 16.1 0.69 Q 13.62 0.69 11.22 0.18 Q 8.83 -0.32 7.22 -1.08 Q 5.61 -1.84 4.32 -2.58 Q 3.04 -3.31 2.44 -3.82 L 2.44 -3.82 L 1.84 -4.32 L 6.16 -11.59 Q 6.72 -11.13 7.68 -10.42 Q 8.65 -9.71 11.11 -8.51 Q 13.57 -7.31 15.46 -7.31 L 15.46 -7.31 Q 20.93 -7.31 20.93 -11.04 L 20.93 -11.04 Q 20.93 -11.82 20.54 -12.49 Q 20.15 -13.16 19.16 -13.82 Q 18.17 -14.49 17.41 -14.88 Q 16.65 -15.27 14.93 -16.08 Q 13.2 -16.88 12.37 -17.3 L 12.37 -17.3 Q 8.92 -19 7.04 -21.55 Q 5.15 -24.1 5.15 -27.05 L 5.15 -27.05 Q 5.15 -32.15 8.92 -35.4 Q 12.7 -38.64 17.53 -38.64 Z" stroke-linecap="round" />
</g>
</g>
</g>
<g transform="matrix(1.9211538461538462 0 0 1.9211538461538462 641.9451682692307 654.9283900481432)" id="tagline-ac1772d0-cdde-47ed-93a8-6534d196e1b0-logo"  >
<g style=""  paint-order="stroke"   >
		<g transform="matrix(1 0 0 1 -1.0124999999999886 -16.50999999999999)" id="tagline-ac1772d0-cdde-47ed-93a8-6534d196e1b0-logo-path-0"  >
<path style="stroke: none; stroke-width: 0; stroke-dasharray: none; stroke-linecap: butt; stroke-dashoffset: 0; stroke-linejoin: miter; stroke-miterlimit: 4; fill: rgb(248,171,177); fill-rule: nonzero; opacity: 1;"  paint-order="stroke"  transform=" translate(0, 0)" d="" stroke-linecap="round" />
</g>
		<g transform="matrix(1 0 0 1 0 8.009999999999991)" id="tagline-ac1772d0-cdde-47ed-93a8-6534d196e1b0-logo-path-1"  >
<path style="stroke: none; stroke-width: 0; stroke-dasharray: none; stroke-linecap: butt; stroke-dashoffset: 0; stroke-linejoin: miter; stroke-miterlimit: 4; fill: rgb(248,171,177); fill-rule: nonzero; opacity: 1;"  paint-order="stroke"  transform=" translate(-162.23999999999998, 8.25)" d="M 8.43 0 L 2.6 0 L 2.6 -16.5 L 8.43 -16.5 Q 11.15 -16.5 12.48 -15.35 Q 13.8 -14.2 13.8 -12.13 L 13.8 -12.13 Q 13.8 -10.7 13.03 -9.69 Q 12.25 -8.68 10.78 -8.38 L 10.78 -8.38 L 10.78 -8.35 Q 12.38 -8.1 13.31 -7.04 Q 14.25 -5.98 14.25 -4.45 L 14.25 -4.45 Q 14.25 -2.35 12.75 -1.18 Q 11.25 0 8.43 0 L 8.43 0 Z M 3.85 -15.35 L 3.85 -8.9 L 8.45 -8.9 Q 12.48 -8.9 12.48 -12.13 L 12.48 -12.13 Q 12.48 -15.35 8.45 -15.35 L 8.45 -15.35 L 3.85 -15.35 Z M 3.85 -7.75 L 3.85 -1.15 L 8.68 -1.15 Q 12.93 -1.15 12.93 -4.45 L 12.93 -4.45 Q 12.93 -7.75 8.68 -7.75 L 8.68 -7.75 L 3.85 -7.75 Z M 28.57 0 L 27.25 0 L 33.85 -16.5 L 35.33 -16.5 L 41.92 0 L 40.6 0 L 38.52 -5.18 L 30.63 -5.18 L 28.57 0 Z M 34.58 -15.28 L 33.98 -13.58 L 31.1 -6.33 L 38.08 -6.33 L 35.2 -13.53 L 34.6 -15.28 L 34.58 -15.28 Z M 55.98 -16.5 L 62.1 -16.5 Q 64.55 -16.5 66.03 -15.25 Q 67.5 -14 67.5 -11.83 L 67.5 -11.83 Q 67.5 -10 66.44 -8.84 Q 65.38 -7.68 63.55 -7.35 L 63.55 -7.35 L 68.38 0 L 66.9 0 L 62.13 -7.23 L 62.08 -7.23 L 61.95 -7.15 L 57.23 -7.15 L 57.23 0 L 55.98 0 L 55.98 -16.5 Z M 57.23 -8.33 L 62.08 -8.33 Q 64.08 -8.33 65.14 -9.22 Q 66.2 -10.13 66.2 -11.83 L 66.2 -11.83 Q 66.2 -13.53 65.14 -14.44 Q 64.08 -15.35 62.08 -15.35 L 62.08 -15.35 L 57.23 -15.35 L 57.23 -8.33 Z M 88.77 0 L 82.95 0 L 82.95 -16.5 L 88.77 -16.5 Q 91.5 -16.5 92.82 -15.35 Q 94.15 -14.2 94.15 -12.13 L 94.15 -12.13 Q 94.15 -10.7 93.38 -9.69 Q 92.6 -8.68 91.13 -8.38 L 91.13 -8.38 L 91.13 -8.35 Q 92.72 -8.1 93.66 -7.04 Q 94.6 -5.98 94.6 -4.45 L 94.6 -4.45 Q 94.6 -2.35 93.1 -1.18 Q 91.6 0 88.77 0 L 88.77 0 Z M 84.2 -15.35 L 84.2 -8.9 L 88.8 -8.9 Q 92.82 -8.9 92.82 -12.13 L 92.82 -12.13 Q 92.82 -15.35 88.8 -15.35 L 88.8 -15.35 L 84.2 -15.35 Z M 84.2 -7.75 L 84.2 -1.15 L 89.02 -1.15 Q 93.27 -1.15 93.27 -4.45 L 93.27 -4.45 Q 93.27 -7.75 89.02 -7.75 L 89.02 -7.75 L 84.2 -7.75 Z M 121.4 0 L 109.72 0 L 109.72 -16.5 L 121 -16.5 L 121 -15.35 L 110.97 -15.35 L 110.97 -8.97 L 118.9 -8.97 L 118.9 -7.8 L 110.97 -7.8 L 110.97 -1.15 L 121.4 -1.15 L 121.4 0 Z M 136 -16.5 L 142.12 -16.5 Q 144.57 -16.5 146.05 -15.25 Q 147.52 -14 147.52 -11.83 L 147.52 -11.83 Q 147.52 -10 146.46 -8.84 Q 145.4 -7.68 143.57 -7.35 L 143.57 -7.35 L 148.4 0 L 146.92 0 L 142.15 -7.23 L 142.1 -7.23 L 141.97 -7.15 L 137.25 -7.15 L 137.25 0 L 136 0 L 136 -16.5 Z M 137.25 -8.33 L 142.1 -8.33 Q 144.1 -8.33 145.16 -9.22 Q 146.22 -10.13 146.22 -11.83 L 146.22 -11.83 Q 146.22 -13.53 145.16 -14.44 Q 144.1 -15.35 142.1 -15.35 L 142.1 -15.35 L 137.25 -15.35 L 137.25 -8.33 Z M 186.87 -16.75 L 186.87 -16.75 Q 191.45 -16.75 193.1 -13.1 L 193.1 -13.1 L 192.05 -12.3 Q 191.32 -14.05 190.01 -14.83 Q 188.7 -15.6 186.77 -15.6 L 186.77 -15.6 Q 184.55 -15.6 183.37 -14.61 Q 182.2 -13.63 182.2 -12.2 L 182.2 -12.2 Q 182.2 -11.05 182.94 -10.3 Q 183.67 -9.55 185.7 -9.1 L 185.7 -9.1 L 188.92 -8.4 Q 191.32 -7.88 192.32 -6.89 Q 193.32 -5.9 193.32 -4.35 L 193.32 -4.35 Q 193.32 -3 192.55 -1.96 Q 191.77 -0.93 190.39 -0.34 Q 189 0.25 187.15 0.25 L 187.15 0.25 Q 184.5 0.25 182.71 -0.81 Q 180.92 -1.88 180.25 -3.75 L 180.25 -3.75 L 181.35 -4.6 Q 181.87 -2.83 183.41 -1.86 Q 184.95 -0.9 187.2 -0.9 L 187.2 -0.9 Q 189.3 -0.9 190.66 -1.76 Q 192.02 -2.63 192.02 -4.28 L 192.02 -4.28 Q 192.02 -5.3 191.27 -6.03 Q 190.52 -6.75 188.67 -7.15 L 188.67 -7.15 L 185.27 -7.9 Q 182.9 -8.43 181.89 -9.46 Q 180.87 -10.5 180.87 -12.05 L 180.87 -12.05 Q 180.87 -13.33 181.6 -14.39 Q 182.32 -15.45 183.66 -16.1 Q 185 -16.75 186.87 -16.75 Z M 206.17 -16.5 L 219.47 -16.5 L 219.47 -15.35 L 213.45 -15.35 L 213.45 0 L 212.2 0 L 212.2 -15.35 L 206.17 -15.35 L 206.17 -16.5 Z M 244.7 -16.5 L 245.95 -16.5 L 245.95 -6.03 Q 245.95 -2.95 244.29 -1.35 Q 242.62 0.25 239.6 0.25 L 239.6 0.25 Q 236.57 0.25 234.9 -1.35 Q 233.22 -2.95 233.22 -6.03 L 233.22 -6.03 L 233.22 -16.5 L 234.47 -16.5 L 234.47 -6.28 Q 234.47 -3.63 235.77 -2.26 Q 237.07 -0.9 239.6 -0.9 L 239.6 -0.9 Q 242.1 -0.9 243.4 -2.26 Q 244.7 -3.63 244.7 -6.28 L 244.7 -6.28 L 244.7 -16.5 Z M 261.75 -16.5 L 266.95 -16.5 Q 270.9 -16.5 273.04 -14.41 Q 275.17 -12.33 275.17 -8.38 L 275.17 -8.38 Q 275.17 -4.3 273.04 -2.15 Q 270.9 0 266.95 0 L 266.95 0 L 261.75 0 L 261.75 -16.5 Z M 263 -1.15 L 267.05 -1.15 Q 270.35 -1.15 272.11 -3.03 Q 273.88 -4.9 273.88 -8.38 L 273.88 -8.38 Q 273.88 -11.73 272.11 -13.54 Q 270.35 -15.35 267.05 -15.35 L 267.05 -15.35 L 263 -15.35 L 263 -1.15 Z M 290.3 -16.5 L 291.55 -16.5 L 291.55 0 L 290.3 0 L 290.3 -16.5 Z M 314.27 -16.75 L 314.27 -16.75 Q 316.6 -16.75 318.31 -15.71 Q 320.02 -14.68 320.95 -12.78 Q 321.88 -10.88 321.88 -8.25 L 321.88 -8.25 Q 321.88 -5.63 320.95 -3.73 Q 320.02 -1.83 318.31 -0.79 Q 316.6 0.25 314.27 0.25 L 314.27 0.25 Q 311.95 0.25 310.24 -0.79 Q 308.52 -1.83 307.6 -3.73 Q 306.68 -5.63 306.68 -8.25 L 306.68 -8.25 Q 306.68 -10.88 307.6 -12.78 Q 308.52 -14.68 310.24 -15.71 Q 311.95 -16.75 314.27 -16.75 Z M 314.27 -15.6 L 314.27 -15.6 Q 312.35 -15.6 310.94 -14.71 Q 309.52 -13.83 308.76 -12.18 Q 308 -10.53 308 -8.25 L 308 -8.25 Q 308 -5.98 308.76 -4.33 Q 309.52 -2.68 310.94 -1.79 Q 312.35 -0.9 314.27 -0.9 L 314.27 -0.9 Q 316.2 -0.9 317.61 -1.79 Q 319.02 -2.68 319.8 -4.33 Q 320.57 -5.98 320.57 -8.25 L 320.57 -8.25 Q 320.57 -10.53 319.8 -12.18 Q 319.02 -13.83 317.61 -14.71 Q 316.2 -15.6 314.27 -15.6 Z" stroke-linecap="round" />
</g>
</g>
</g>
<g transform="matrix(1.9211538461538462 0 0 1.9211538461538462 456.94957705087137 441.5490598018808)" id="tagline-cf9d395f-2a14-4ecb-9c5f-0a3abae423ac-logo"  >
<g style=""  paint-order="stroke"   >
		<g transform="matrix(1 0 0 1 0 0)" id="tagline-cf9d395f-2a14-4ecb-9c5f-0a3abae423ac-logo-path-0"  >
<path style="stroke: none; stroke-width: 0; stroke-dasharray: none; stroke-linecap: butt; stroke-dashoffset: 0; stroke-linejoin: miter; stroke-miterlimit: 4; fill: rgb(248,171,177); fill-rule: nonzero; opacity: 1;"  paint-order="stroke"  transform=" translate(0, 0)" d="" stroke-linecap="round" />
</g>
</g>
</g>
<g transform="matrix(1.9211538461538462 0 0 1.9211538461538462 845.7485538306271 425.85776680188076)" id="tagline-7eebf08a-3855-46ad-be0c-65785b4b6478-logo"  >
<g style=""  paint-order="stroke"   >
		<g transform="matrix(1 0 0 1 0 0)" id="tagline-7eebf08a-3855-46ad-be0c-65785b4b6478-logo-path-0"  >
<path style="stroke: none; stroke-width: 0; stroke-dasharray: none; stroke-linecap: butt; stroke-dashoffset: 0; stroke-linejoin: miter; stroke-miterlimit: 4; fill: rgb(248,171,177); fill-rule: nonzero; opacity: 1;"  paint-order="stroke"  transform=" translate(0, 0)" d="" stroke-linecap="round" />
</g>
</g>
</g>
<g transform="matrix(1.2847055637642752 0 0 1.2847055637642752 640.2508537565288 618.652360646995)" id="logo-logo"  >
<g style=""  paint-order="stroke"   >
		<g transform="matrix(0 0.387971602453373 -0.387971602453373 0 0 0)"  >
<g style=""  paint-order="stroke"   >
		<g transform="matrix(1 0 0 1 0 0)"  >
<path style="stroke: none; stroke-width: 1; stroke-dasharray: none; stroke-linecap: butt; stroke-dashoffset: 0; stroke-linejoin: miter; stroke-miterlimit: 4; fill: rgb(252,222,225); fill-rule: nonzero; opacity: 1;"  paint-order="stroke"  transform=" translate(-75.90188701771913, -100.0242160894244)" d="M 150.17 97.09 L 150.17 97.09 L 79.84 2 C 79.5547245973999 1.6218438017580845 79.21815619824191 1.2852754026001056 78.84 0.9999999999999991 C 77.99433955914198 0.35672801532924536 76.96250045787947 0.005762334627713694 75.9 -8.881784197001252e-16 C 74.81611959583618 -0.01274217741177223 73.759459016884 0.33947801557228796 72.9 1.0000000000000036 C 72.52427065173596 1.2880547555765305 72.18805475557653 1.62427065173596 71.9 2.0000000000000018 L 1.64 97.08 L 1.64 97.08 C 0.32999894179883316 98.82851800914699 0.32999894179883316 101.23148199085301 1.6400000000000003 102.98 L 1.64 102.98 L 72.05 198.06 C 72.33707392489265 198.43658795610506 72.67341204389494 198.77292607510734 73.05 199.06 C 74.79943407201796 200.3783548507509 77.21056592798203 200.3783548507509 78.96 199.06 C 79.33858804696307 198.77522146445887 79.67522146445886 198.43858804696308 79.96 198.06 L 150.16 103 L 150.16 103 C 151.47132274848155 101.24944705045966 151.47539121971153 98.84498055354743 150.17 97.09 Z M 148.57999999999998 101.81 L 78.33 196.89 C 77.77431172107019 197.62484053506347 76.90629261112436 198.0567050442749 75.985 198.0567050442749 C 75.06370738887564 198.0567050442749 74.19568827892981 197.62484053506347 73.64 196.89 L 3.22 101.8 C 2.439992922851191 100.75629970084327 2.439992922851191 99.32370029915673 3.22 98.28 L 73.55 3.19 C 74.10776163491016 2.4549735953255785 74.97730727923849 2.023255450012698 75.9 2.023255450012698 C 76.82269272076151 2.023255450012698 77.69223836508984 2.454973595325579 78.25 3.1900000000000004 L 148.57999999999998 98.28 C 149.3455259744091 99.33215603972013 149.3455259744091 100.75784396027986 148.58 101.81 Z M 75.9 164.2 C 84.18 164.2 91.9 166.13 97.61000000000001 169.64999999999998 L 96.61000000000001 171.33999999999997 C 91.27000000000001 168.05999999999997 83.74000000000001 166.17999999999998 75.93 166.17999999999998 C 68.12 166.17999999999998 60.53000000000001 168.06999999999996 55.19000000000001 171.37999999999997 L 54.19000000000001 169.69999999999996 C 59.84 166.15 67.58 164.2 75.9 164.2 Z M 96.58 28.74 L 97.73 30.349999999999998 L 97.62 30.419999999999998 C 91.9 34 84.19 35.88 75.9 35.88 C 67.61000000000001 35.88 59.84 33.88 54.11000000000001 30.380000000000003 L 55.11000000000001 28.700000000000003 C 60.5 32 68.06 33.9 75.9 33.9 C 83.74000000000001 33.9 91.25 32 96.58 28.74 Z" stroke-linecap="round" />
</g>
</g>
</g>
</g>
</g>
</svg>